<?xml version="1.0" encoding="UTF-8" standalone="no"?>
<!-- Created with Inkscape (http://www.inkscape.org/) -->

<svg
   xmlns:dc="http://purl.org/dc/elements/1.1/"
   xmlns:cc="http://creativecommons.org/ns#"
   xmlns:rdf="http://www.w3.org/1999/02/22-rdf-syntax-ns#"
   xmlns:svg="http://www.w3.org/2000/svg"
   xmlns="http://www.w3.org/2000/svg"
   xmlns:sodipodi="http://sodipodi.sourceforge.net/DTD/sodipodi-0.dtd"
   xmlns:inkscape="http://www.inkscape.org/namespaces/inkscape"
   width="45mm"
   height="45mm"
   viewBox="0 0 45 45"
   version="1.1"
   id="svg8"
   inkscape:version="0.92.3 (2405546, 2018-03-11)"
   sodipodi:docname="Pessoa_teste.svg">
  <defs
     id="defs2" />
  <sodipodi:namedview
     id="base"
     pagecolor="#ffffff"
     bordercolor="#666666"
     borderopacity="1.0"
     inkscape:pageopacity="0.0"
     inkscape:pageshadow="2"
     inkscape:zoom="0.98994949"
     inkscape:cx="167.32061"
     inkscape:cy="320.31077"
     inkscape:document-units="mm"
     inkscape:current-layer="layer1"
     showgrid="false"
     fit-margin-left="-0.5"
     inkscape:window-width="1920"
     inkscape:window-height="1001"
     inkscape:window-x="-9"
     inkscape:window-y="-9"
     inkscape:window-maximized="1" />
  <metadata
     id="metadata5">
    <rdf:RDF>
      <cc:Work
         rdf:about="">
        <dc:format>image/svg+xml</dc:format>
        <dc:type
           rdf:resource="http://purl.org/dc/dcmitype/StillImage" />
        <dc:title></dc:title>
      </cc:Work>
    </rdf:RDF>
  </metadata>
  <g
     inkscape:label="Camada 1"
     inkscape:groupmode="layer"
     id="layer1"
     transform="translate(0,-252)">
    <path
       style="fill:#000000;stroke-width:0.11624904"
       d="m 19.401881,295.48353 c -3.272998,-0.44898 -6.489835,-1.70711 -9.126217,-3.56936 -1.4201207,-1.00313 -3.7981457,-3.377 -4.7990567,-4.79067 -0.89951,-1.27047 -2.11961,-3.6572 -2.6384422,-5.16129 -0.1962566,-0.56892 -0.4967222,-1.69364 -0.6677011,-2.49934 -0.2791379,-1.31539 -0.3113874,-1.71412 -0.3159317,-3.90615 -0.0056,-2.69804 0.1740822,-3.96504 0.8812165,-6.21402 0.4727625,-1.50359 1.7860855,-4.1243 2.7406975,-5.46901 1.006906,-1.41838 3.383841,-3.79476 4.7992177,-4.7981 2.198963,-1.55881 5.115283,-2.79586 7.924255,-3.36131 1.11604,-0.22466 1.682009,-0.26523 3.700648,-0.26523 2.018638,0 2.584608,0.0405 3.700647,0.26523 2.80897,0.56545 5.725291,1.8025 7.924254,3.36131 1.416882,1.00441 3.793692,3.38122 4.7981,4.7981 0.899458,1.26884 2.119838,3.65507 2.638954,5.16001 0.59043,1.71169 0.934097,3.63042 1.012187,5.65115 0.140105,3.62568 -0.494548,6.57365 -2.114746,9.82304 -2.787077,5.58963 -7.965085,9.5169 -14.181303,10.75584 -1.461086,0.29121 -4.882731,0.41102 -6.276779,0.2198 z m 6.04428,-2.54669 c 2.913175,-0.62033 5.550103,-1.88203 7.788688,-3.72666 3.127133,-2.5768 5.237032,-6.10238 6.118687,-10.22412 0.354507,-1.65733 0.382868,-4.94495 0.05766,-6.68431 -1.342563,-7.18062 -6.702622,-12.64585 -13.993104,-14.2677 -1.540577,-0.34272 -5.242599,-0.37172 -6.812719,-0.0534 -3.56768,0.72335 -6.725839,2.41366 -9.2616737,4.95706 -3.269795,3.27955 -4.990754,7.19739 -5.191045,11.81764 -0.255362,5.89068 2.33896,11.40299 7.0213637,14.91872 2.444967,1.83576 5.040982,2.93018 8.160756,3.44035 1.449747,0.23708 4.59297,0.14573 6.11139,-0.1776 z m -5.810006,-1.40162 c -2.460447,-0.38515 -4.674067,-1.24893 -6.803013,-2.65462 -1.350333,-0.89158 -3.3569297,-2.91312 -4.3394567,-4.37175 -0.71253,-1.0578 -0.764545,-1.17458 -0.582468,-1.30772 0.415073,-0.30351 1.589448,-0.66245 4.6894267,-1.4333 4.571464,-1.13677 5.167217,-1.49064 5.171286,-3.0717 0.0016,-0.65109 -0.04298,-0.76875 -0.66199,-1.74442 -0.685658,-1.08073 -1.193785,-2.26466 -1.369411,-3.19073 -0.07179,-0.37854 -0.234464,-0.67257 -0.563418,-1.01837 -0.775268,-0.81498 -1.297535,-2.65924 -1.057002,-3.73256 0.06456,-0.28805 0.143943,-0.56673 0.176419,-0.61928 0.03248,-0.0525 0.07899,-0.68496 0.103371,-1.40537 0.09136,-2.69967 0.915632,-4.39228 2.790495,-5.73016 2.897135,-2.06735 6.521842,-2.06833 9.416793,-0.003 1.869833,1.33429 2.698821,3.05232 2.793649,5.78968 0.02382,0.68783 0.07022,1.29409 0.103072,1.34727 0.03286,0.0531 0.112561,0.33234 0.177117,0.6204 0.23913,1.06705 -0.290048,2.95059 -1.039524,3.70007 -0.251189,0.25118 -0.473329,0.60692 -0.51796,0.82946 -0.232266,1.15811 -0.784804,2.42774 -1.609074,3.69733 -0.435842,0.67132 -0.486998,0.82412 -0.486466,1.45311 0.0013,1.5961 0.586075,1.93929 5.284075,3.10127 1.81964,0.45007 3.642401,0.96973 4.05058,1.15481 l 0.742143,0.3365 -0.264854,0.43827 c -1.027634,1.70048 -2.711199,3.5671 -4.281072,4.74652 -1.068298,0.8026 -3.308135,1.97737 -4.543348,2.38293 -1.646724,0.54067 -2.669647,0.70346 -4.708088,0.74928 -1.086927,0.0245 -2.289002,-0.004 -2.671282,-0.0644 z"
       id="path21"
       inkscape:connector-curvature="0" />
  </g>
</svg>
